<svg version="1.1" xmlns="http://www.w3.org/2000/svg" xmlns:xlink="http://www.w3.org/1999/xlink" preserveAspectRatio="xMidYMid meet" viewBox="648 336 342 130"><g data-item-type="text" data-item="Business" id="logo__item--business" class="logo__item" stroke="none" fill="#000000" stroke-width="1px">
                <g class="logo__item__inner" transform="translate(649.796875 446.13763844617546) scale(1.0274880353417597 1.0274880353417597) rotate(0 0 0)" stroke="none" fill="#000000" stroke-width="1px">
                    <text data-part-id="logo__item--business" dy="0" dominant-baseline="auto" alignment-baseline="auto" font-family="Oswald" font-size="32px" fill="#98c24d" letter-spacing="0" font-weight="normal" font-style="normal" data-font-family="Oswald" data-font-weight="normal" data-font-style="normal" data-ttf-url="/builder_assets/fontsttf/font-montserrat-bold-normal.ttf" data-font-filename="oswald-normal-normal" stroke="none" stroke-width="1px">Farms Consultations</text>
                </g>
            </g><g data-item-type="image" data-item="Image" data-logo-item="" id="logo__item--logo_0" class="logo__item" stroke="none" fill="#000000" stroke-width="1px">
    <g class="logo__item__inner" transform="translate(883.5985609497387 333.5) scale(1.3274628463939515 1.3274628463939515) rotate(0 0 0)" stroke="none" fill="#000000" stroke-width="1px">
        












<g stroke="none" fill="#000000" stroke-width="1px">
	<g stroke="none" fill="#000000" stroke-width="1px">
		<g stroke="none" fill="#000000" stroke-width="1px">
			<path fill-rule="evenodd" clip-rule="evenodd" fill="#98c24d" d="M78.233,38.752c0,18.713-12.965,36.964-28.965,36.964     S20.303,57.466,20.303,38.752c0-18.72,12.966-33.893,28.966-33.893S78.233,20.033,78.233,38.752z" data-part-id="logo__item--logo_0__0" stroke="none" stroke-width="1px"></path>
			<path fill="#333333" d="M52.757,60.491c-0.079-0.042-0.746,2.743-0.35-0.487c1.744-14.262,6.562-21.864,11.888-32.946     c2.858-5.958,2.545-7.704,3.19-9.842c-2.14,5.654-16.051,29.687-17.298,32.929c-0.514,1.335-0.729,1.823-1.55,4.344     c-1.974-4.895-5.953-11.849-9-15.66c-1.986-2.48-4.447-4.346-6.024-7.341c-4.949-9.384,1.103,2.938,2.56,4.897     c11.003,14.746,11.157,21.501,8.759,37.937c-0.054-0.382-0.112-0.654-0.169-0.757c-0.789-1.397-2.187-3.443-2.963-4.807     c-1.707-3.029-3.245-5.523-6.178-8.744c-1.803-1.992-7.132-5.312-8.121-8.149c-1.537-4.408,0.063,1.515,0.989,2.837     c1.273,1.834,3.245,3.443,4.562,5.417c10.54,15.814,9.049,18.008,9.548,35.138c8.581-1.616,6.196-0.07,7.099-12.566     c0.357-5.021,2.755-11.336,3.354-15.733c0.661-3.83,13.292-19.61,17.781-23.901c4.095-3.903,6.262-6.893,6.67-7.458     C76.03,37.55,55.556,53.262,52.757,60.491z" data-part-id="logo__item--logo_0__1" stroke="none" stroke-width="1px"></path>
		</g>
	</g>
</g>

    </g>
</g><g data-item-type="shape" data-item="Shape" data-logo-item="" id="logo__item--shape_1" class="logo__item" stroke="none" fill="#000000" stroke-width="1px">
    <g class="logo__item__inner" transform="translate(677.6934585571289 359.49999237060547) scale(2.0269363962580504 2.0269363962580504) rotate(0 0 0)" stroke="none" fill="#000000" stroke-width="1px">
        
<g stroke="none" fill="#000000" stroke-width="1px">
	<path fill="#091117" d="M95.3,50.3c0-0.1,0-0.3-0.1-0.3l-0.1,0.4L95.3,50.3z" data-part-id="logo__item--shape_1__0" stroke="none" stroke-width="1px"></path>
	<path fill="#091117" d="M94.4,49.6c-0.2,0.2-0.3,0.5-0.2,0.9c0.1-0.4,0.2-0.2,0.3-0.7c0.1,0,0.2,0.1,0.2,0.3c0-0.1,0.2,0.1,0.3-0.2   c-0.2-0.3-0.4-0.3-0.6-0.1C94.3,49.7,94.4,49.6,94.4,49.6z" data-part-id="logo__item--shape_1__1" stroke="none" stroke-width="1px"></path>
	<path fill="#091117" d="M81.8,48.9L81.8,48.9C81.9,49,81.9,49,81.8,48.9z" data-part-id="logo__item--shape_1__2" stroke="none" stroke-width="1px"></path>
	<path fill="#091117" d="M74.1,48.7C74.1,48.7,74.1,48.7,74.1,48.7C74.1,48.7,74.1,48.7,74.1,48.7z" data-part-id="logo__item--shape_1__3" stroke="none" stroke-width="1px"></path>
	<path fill="#091117" d="M72.7,48.3C72.8,48.3,72.8,48.3,72.7,48.3C72.8,48.3,72.8,48.3,72.7,48.3z" data-part-id="logo__item--shape_1__4" stroke="none" stroke-width="1px"></path>
	<path fill="#091117" d="M81.8,48.9l-0.2-0.1C81.6,49,81.7,48.9,81.8,48.9z" data-part-id="logo__item--shape_1__5" stroke="none" stroke-width="1px"></path>
	<path fill="#091117" d="M92.7,50.5c0,0,0.1-0.1,0.1-0.1C92.7,50.4,92.7,50.4,92.7,50.5C92.7,50.5,92.7,50.5,92.7,50.5z" data-part-id="logo__item--shape_1__6" stroke="none" stroke-width="1px"></path>
	<path fill="#091117" d="M85.3,48.6L85.3,48.6c0.1,0,0.1-0.1,0.1-0.2L85.3,48.6z" data-part-id="logo__item--shape_1__7" stroke="none" stroke-width="1px"></path>
	<path fill="#091117" d="M87.9,48.6c-0.1,0-0.1,0.3-0.1,0.5c0-0.1,0.1-0.2,0.1-0.2C87.9,48.7,87.9,48.7,87.9,48.6z" data-part-id="logo__item--shape_1__8" stroke="none" stroke-width="1px"></path>
	<path fill="#091117" d="M92.1,49.2L92.1,49.2C92.1,49.1,92.1,49.1,92.1,49.2z" data-part-id="logo__item--shape_1__9" stroke="none" stroke-width="1px"></path>
	<path fill="#091117" d="M83.4,48.6c0,0,0-0.1,0-0.1C83.4,48.5,83.4,48.5,83.4,48.6z" data-part-id="logo__item--shape_1__10" stroke="none" stroke-width="1px"></path>
	<path fill="#091117" d="M9.8,51.1C9.8,51.1,9.8,51,9.8,51.1C9.8,51.1,9.8,51.1,9.8,51.1z" data-part-id="logo__item--shape_1__11" stroke="none" stroke-width="1px"></path>
	<path fill="#091117" d="M6.8,49.4L6.8,49.4c0-0.1,0.1-0.1,0.1-0.2L6.8,49.4z" data-part-id="logo__item--shape_1__12" stroke="none" stroke-width="1px"></path>
	<path fill="#091117" d="M70.3,47.9C70.3,47.9,70.3,47.9,70.3,47.9C70.4,47.8,70.3,47.8,70.3,47.9z" data-part-id="logo__item--shape_1__13" stroke="none" stroke-width="1px"></path>
	<path fill="#091117" d="M48,48.1c0.3,0.3-0.4,0.4,0,0.7C47.9,48.7,48.3,48.3,48,48.1z" data-part-id="logo__item--shape_1__14" stroke="none" stroke-width="1px"></path>
	<path fill="#091117" d="M92.6,50.5c0,0-0.1,0-0.1,0C92.5,50.5,92.6,50.5,92.6,50.5z" data-part-id="logo__item--shape_1__15" stroke="none" stroke-width="1px"></path>
	<path fill="#091117" d="M48,48.8C48,48.8,48,48.8,48,48.8L48,48.8C48,48.9,48,48.8,48,48.8z" data-part-id="logo__item--shape_1__16" stroke="none" stroke-width="1px"></path>
	<path fill="#091117" d="M64.7,48.1c0,0.1,0,0.1,0.1,0.1C64.8,48.2,64.7,48.1,64.7,48.1z" data-part-id="logo__item--shape_1__17" stroke="none" stroke-width="1px"></path>
	<path fill="#091117" d="M68.9,48.5l-0.1,0C68.8,48.5,68.8,48.5,68.9,48.5z" data-part-id="logo__item--shape_1__18" stroke="none" stroke-width="1px"></path>
	<path fill="#091117" d="M62.5,48.5c-0.1,0-0.1-0.1-0.2,0c0,0,0,0,0,0C62.4,48.5,62.5,48.5,62.5,48.5z" data-part-id="logo__item--shape_1__19" stroke="none" stroke-width="1px"></path>
	<path fill="#091117" d="M60.3,48.5C60.3,48.6,60.3,48.6,60.3,48.5c0.1,0.1,0.1,0.1,0.1,0L60.3,48.5z" data-part-id="logo__item--shape_1__20" stroke="none" stroke-width="1px"></path>
	<path fill="#091117" d="M16.7,50.9c0-0.1-0.1-0.2-0.1-0.3C16.6,50.9,16.3,50.9,16.7,50.9z" data-part-id="logo__item--shape_1__21" stroke="none" stroke-width="1px"></path>
	<path fill="#091117" d="M92.7,50.3c0,0.1,0,0.1-0.1,0.1c0,0,0.1,0,0.1,0C92.7,50.4,92.7,50.4,92.7,50.3z" data-part-id="logo__item--shape_1__22" stroke="none" stroke-width="1px"></path>
	<path fill="#091117" d="M62.5,51.2l-0.4,0C62.2,51.2,62.3,51.2,62.5,51.2z" data-part-id="logo__item--shape_1__23" stroke="none" stroke-width="1px"></path>
	<path fill="#091117" d="M32.8,50.9L32.8,50.9C32.8,50.9,32.8,50.9,32.8,50.9z" data-part-id="logo__item--shape_1__24" stroke="none" stroke-width="1px"></path>
	<path fill="#091117" d="M61,51.2C61,51.1,60.9,51,60.8,51c0,0,0,0,0,0.1L61,51.2z" data-part-id="logo__item--shape_1__25" stroke="none" stroke-width="1px"></path>
	<path fill="#091117" d="M17,50.6C17,50.6,17,50.6,17,50.6C17,50.6,17,50.6,17,50.6z" data-part-id="logo__item--shape_1__26" stroke="none" stroke-width="1px"></path>
	<path fill="#333333" d="M14.2,51.4c0.3,0,0.2-0.4,0.2-0.7c0.4-0.1,0.2,0.3,0.3,0.6c0.3-0.1,0.4-0.5,0.6-0.5c0,0.1,0.1,0.1,0,0.2   c0.3-0.4,0.8,0,1.1-0.5c0,0,0,0.1,0,0.1c-0.1-0.2-0.1-0.4,0-0.6c0.2,0,0.3-0.3,0.3,0c-0.1,0-0.1,0.1-0.1,0.2l0.2-0.1   c0.1,0.4-0.2,0.1-0.2,0.5c0.3-0.1,0.7-0.5,0.9-0.4c0.1,0.4-0.6,0.1-0.2,0.5l-0.4-0.2c0.3,0.6-0.2,0,0,0.6c0.5,0.1,0.5-0.2,1-0.1   c0.1-0.2,0-0.3,0.1-0.6c0.7-0.4,0.5,1,1.1,0.5c0.1-0.3,0.2-0.8,0.5-0.5l-0.1,0.5c0.5,0,0.3-0.7,0.8-0.4c-0.1,0.2-0.4,0.2-0.3,0.2   c0.3,0.4,0.2-0.3,0.5-0.3l0.1,0.4c0.5-0.1,1.1-0.4,1.6-0.4c0,0.1-0.1,0.2,0,0.4c0.7-0.2,1.5,0,2.2,0.3l0.3-0.4c0.1,0,0.1,0.2,0,0.2   c0.3,0.1,0-0.2,0.1-0.4c0.2,0,0.2,0.2,0.1,0.3c0.5-0.3,1.3-0.6,1.8-0.3l-0.1,0.1c0.4,0.1,0.4-0.7,0.8-0.4l-0.1,0.1   c0.8,0.2,1.7-0.2,2.4,0.4c0.1-0.5,0.8,0.2,0.9-0.5c0.5,0.3,0.3,0.5,1,0.7c0.2,0,0.3-0.4,0.5-0.5l0,0.4l0.3-0.4l0.2,0.4l0.2-0.1   c-0.1,0-0.2-0.2-0.2-0.3c0.3-0.2,0.8,0.3,0.8,0.4l0.8-0.3c0,0.1-0.1,0.2-0.2,0.3c0.4-0.4,0.1,0.4,0.4,0c-0.1-0.1,0-0.2,0-0.3   c0.2,0.2,0.6,0.2,0.9,0.1l-0.1,0.3c0.6,0.1,1.2-0.1,1.8-0.1c-0.2-0.1-0.2-0.6,0-0.6l0.1,0.4c0.1-0.2-0.2-0.1,0.1-0.4   c0.2,0,0.2,0.4,0,0.6l0.3-0.1c0,0.1-0.1,0.2-0.1,0.3c0.1-0.2,0.5,0.4,0.7,0l0,0.1c0.6,0,0.9-0.1,1.4-0.2c0-0.3,0.2-0.3,0.4-0.5   c0.4,0.1,0.8,0.4,1.3,0.3c0.3-0.2,0.1-0.3,0.2-0.5c0,0.3,0.5,0.3,0.2,0.5c0.5,0,0.7-0.1,1.4-0.3c-0.1-0.1-0.2-0.2-0.1-0.3   c0.1-0.1,0.3,0.1,0.3,0.3l0,0c0.8-0.5,1.8,0.9,2.4,0.3l0,0l0.6-0.3c0.3,0.1-0.2,0.2,0,0.4c0.7-0.5,1.1,0.1,1.7-0.3   c0.4,0.9,1.6-0.1,2.2,0.5l0-0.2c0.2-0.2,0.2,0.1,0.3,0.2c0-0.2-0.2-0.2-0.1-0.3c1.3-0.3,2.7,0.3,4,0.5c0.5,0.1,0.3-1.1,0.9-0.6   l-0.2,0.4c1-0.5,2,0,3-0.4c-0.1,0.1-0.1,0.2-0.2,0.2c0.2,0.3,0.8,0,0.8-0.2c0.2,0,0,0.2,0.1,0.3c0.2,0.2,0.5-0.4,0.6-0.1   c0,0-0.1,0.1-0.1,0.1c0.1-0.1,0.6,0,0.5-0.3c0.4,0.2,0.7-0.1,1,0c0.2-0.4,0.6,0.2,0.7-0.3c0,0.5,0.6,0.4,0.9,0.2   c-0.1,0.2,0.2,0.2,0.1,0.4c0.3,0,0.5-0.1,0.5-0.4c0.5,0.6,1-0.5,1.2,0.3c0.8-0.3,1.5-0.5,2.2-0.6c0,0.5-0.8,0.1-0.7,0.6   c0.7-0.2,1.1-0.7,1.7-0.6c0.2,0.1-0.1,0.2-0.2,0.3c0.7-0.2,1.3,0,1.9-0.2c0,0.1-0.1,0.1-0.1,0.1c0.1,0,0.3,0.1,0.3-0.2l-0.1,0.1   c-0.2-0.4,0.5-0.7,0.5-0.9c-0.2,0.7,0.6,0.2,0.3,1.1c0.1,0,0.2-0.2,0.2-0.3c0.1,0,0.2,0.1,0,0.3c0.4-0.1,0.3-0.4,0.6-0.4   c0,0.1-0.1,0.2-0.1,0.3c0.2-0.2,0.4-0.5,0.7-0.4c0,0.1,0,0.2-0.1,0.2c0.5,0,0.9-0.6,1.5-0.4c-0.2,0.5,0.2,0.2,0.2,0.6l0.3-0.1   l-0.1-0.2c0.3,0,0.5-0.3,0.8-0.2l-0.2,0.2l0.5-0.1L74,50.2c0.3-0.2,0.1-0.6,0.5-0.4c-0.1,0,0.6,0,0.6,0.3c0,0,0,0,0,0   c0-0.1,0.2-0.3,0.4-0.2c0.1,0.1-0.1,0.5-0.1,0.6c0.1-0.4,0.6-0.1,0.8-0.5c-0.1,0.1-0.1,0.3-0.1,0.4l0.1-0.3   c0.1,0.1,0.1,0.1,0.1,0.3c0.4,0.1-0.1-0.6,0.3-0.3c0,0,0,0.1-0.1,0.1c0.5,0.1,0.9-0.2,1.3,0c0.1,0.4-0.4,0.1-0.2,0.5   c0.6-0.1,1.3-0.5,1.9-0.4l-0.1,0c0.1-0.6,0.5,0.3,0.8,0c-0.1,0-0.1,0.4-0.1,0.3c0.4,0.1,0.8-0.2,1.5-0.4l-0.1,0.2   c0.2,0.1,0.6,0.1,0.9,0.2c0.1-0.2,0.2-0.1,0.1-0.4c0.8,0.9,1.6-0.5,2.3,0.3c-0.1,0-0.2,0.1-0.1,0.1l0.6-0.2c0-0.3-0.1-0.2-0.2-0.4   c0.1-0.2,0.3-0.3,0.4-0.3c-0.3,0.2,0,0.4,0.1,0.6c0-0.1,0-0.2,0-0.3c0.3,0.5,0.1-0.6,0.5-0.2l0,0.1c0.2-0.1,0.3-0.3,0.5-0.2   c0.1,0.3-0.2,0.1-0.2,0.4c0.2,0,0.5-0.6,0.7-0.3c-0.1,0.1-0.3,0.1-0.4,0.2c0.2,0.4,0.3,0.3,0.5,0.3l0,0l0.4,0.2l-0.1-0.1   c0.3-0.8,0.6-0.2,1.1-0.7c-0.4,0.5-0.1,0.3-0.1,0.7c0.1,0.1,0.3,0.2,0.2,0.3c0.2-0.3,0.3,0.2,0.6-0.2c0,0.1,0.2,0,0.2,0.3   c0.3-0.1-0.1-0.2,0-0.3c0.4-0.4,0.9,0.5,1.5-0.1c0.5-0.2,0.6-0.6,1-0.8c0.2,0.2-0.1,0.4-0.1,0.4c0.2,0.2,0.4,0.1,0.7,0   c0,0.1,0,0.2,0.1,0.3c0.2,0,0.1-0.4,0.4-0.3c0,0.1-0.1,0.3-0.2,0.5c0.2-0.1,0.4-0.3,0.7-0.4c0.1,0.2-0.1,0.3-0.2,0.4   c0.3-0.1,0.7-0.2,0.7-0.5l-0.2-0.1c0.1,0,0,0.3,0,0.3c-0.2,0.3-0.3-0.1-0.3-0.2l0.2-0.1c-0.2-0.7-0.7,0.1-1,0.1l0.1-0.5l-0.3,0.4   c-0.1-0.1-0.1-0.4,0-0.5c-0.2-0.2-0.2,0.2-0.4-0.1c0,0,0-0.1,0-0.1l-0.2,0.1c0-0.1,0-0.4,0.1-0.3c-0.4-0.3-0.7,0.4-0.8,0l0,0   c-0.6,0.2-0.1,0.4-0.5,0.8l-0.3-0.9l-0.1,0.4c-0.1,0-0.2,0-0.2-0.2c-0.2,0.2,0,0.2-0.1,0.4c-0.3-0.3-0.8,0.2-0.8-0.4   c-0.1,0.3,0.3,0.2,0,0.4c-0.1-0.6-0.4,0.1-0.6-0.2c0.1-0.3,0.3-0.2,0.1-0.4c-0.2,0.5-0.5-0.1-0.7,0c0,0.4-0.5,0.2-0.8,0.3   c0-0.1-0.7-0.2-1-0.4l0-0.1c-0.1,0.4-0.4,0.4-0.7,0.4c0-0.3,0.1-0.4,0.2-0.5l-0.2,0c-0.1,0.1-0.1,0.2-0.3,0.3l0.1-0.3   c-0.3,0-0.6,0.4-1.1,0.2c0,0.3,0.3,0.9-0.1,1.1c0-0.2,0-0.4,0.1-0.5c0,0-0.1,0.1-0.2,0.1l0.2-0.3c-0.2-0.1-0.1,0.2-0.2,0.2   c0-0.2-0.1-0.2-0.1-0.4c0,0,0.1,0.1,0.2,0c-0.2,0-0.4-0.2-0.4-0.4c0,0.1,0,0.3-0.1,0.3c-0.3,0-0.1-0.3-0.3-0.4   c-0.1,0.2-0.3,0-0.3,0.3c-0.1,0-0.1-0.2-0.1-0.3c-0.2,0.2-0.8,0-0.6,0.4l0,0c0,0,0,0,0,0c0,0,0,0,0,0h0c-0.5,0-1-0.1-2,0.1v-0.2   c0,0.1-0.6,0.1-0.8,0.3c-0.1,0-0.2-0.2-0.1-0.4c-0.2,0.1-0.2,0.2-0.6,0c0.2-0.2-0.1-0.2,0.3-0.2c-0.3-0.1-0.4-0.3-0.7,0   c0.1-0.3-0.2-0.4-0.4-0.3l0.2,0.2c-0.2,0-0.3,0-0.5,0l0.1-0.4c-0.7-0.5-1.2,0.8-1.7,0c-0.2,0.3,0.4,0.2,0.2,0.5   c-0.3-0.1-0.6-0.6-0.7-0.6c-0.4-0.2-0.4,0.6-0.8,0.4c0.1,0.1,0.1,0.5-0.2,0.7c-0.3-0.1-0.4-0.6-0.2-0.7c0.1,0,0.1,0,0.1,0.1   c0.1-0.1,0.2-0.1,0.1-0.3l0,0.1c-0.2-0.1-0.6-0.1-0.5-0.4c-0.2,0.1-0.1,0.2,0.1,0.3c-0.4-0.2-0.6,0-1-0.1c0.1,0.1,0.1,0.2,0.1,0.2   c-0.6-0.2-0.3,0.3-0.7,0.3c-0.2-0.2,0.1-0.5-0.3-0.3c-0.2-0.1-0.1-0.4,0-0.5c-0.4,0.3-0.7-0.2-0.9-0.2l0.2-0.1   c-0.1,0.1-0.2,0.1-0.3,0.1l0.1,0.3c-0.1,0-0.2-0.1-0.2-0.2c-0.1,0.2,0.1,0.5-0.1,0.7c-0.2-0.1-0.5,0.2-0.5-0.2   c0.5,0.1-0.1-0.4,0.3-0.4c-0.1,0-0.2,0-0.3,0c0,0,0-0.1,0-0.1c-0.5-0.3-0.2,0.4-0.7,0.4c0.1-0.2-0.1-0.4-0.2-0.4   c0.2,0,0.1,0.4-0.1,0.5c-0.3-0.2-0.3,0.1-0.5,0.1l0.2,0.1c-0.1,0.2-0.2,0.2-0.4,0.3c0-0.2,0.2-0.1,0.1-0.2   c-0.2,0.4-0.5-0.4-0.8-0.1c-0.2-0.1,0-0.4-0.1-0.5c-0.4,0.3-0.4-0.3-0.8-0.1c0.1,0.3,0.1,0.2-0.1,0.5l0.6-0.2l-0.4,0.4   c0.2,0,0.4-0.2,0.5-0.1c-0.2,0.2-0.2,0.2-0.1,0.4c-0.3-0.4-0.5,0.2-0.8,0l0-0.7c-0.5-0.3-0.8,0.4-1.4,0.2l0.2,0.1   c-0.1,0.3-0.4,0-0.6,0.2c0-0.2-0.1-0.3-0.2-0.5c0,0.2-0.4,0-0.5,0.5L64,48.4c-0.5-0.1-0.5,0.7-1,0.6c0.1-0.3-0.1-0.4,0.2-0.6   c-0.2,0-0.3,0-0.3,0.1c-0.1-0.1-0.4,0.3-0.6,0.1c-0.1,0.1-0.1,0.4-0.3,0.3c0,0,0-0.1,0-0.1c0,0.1-0.3,0.2-0.1,0.4   c-0.5-0.7-1.3,0.1-1.7-0.6c-0.3,0.1-0.7,0.2-1,0.2c0-0.1,0-0.1,0.1-0.1c-0.4-0.2-0.3,0.7-0.7,0.4c-0.2-0.4,0.3-0.2,0.1-0.4   c-0.1-0.8-0.6,0.1-0.9-0.3l0.1,0c-0.2-0.3-0.6,0.3-1,0.2c0,0,0-0.1,0-0.1c-0.3,0.4-0.8,0.5-1.2,0.6c0.1-0.3,0.2-0.2,0.1-0.5   c-0.2,0,0.1,0.5-0.3,0.6c-0.1-0.2-0.4-0.3-0.4-0.6l0.3,0c-0.2-0.4-0.4,0-0.6-0.1l0-0.2c-0.5,0.1-0.5,0.5-1,0.5L54,49   c-0.3,0.5-0.2-0.3-0.5,0.1l-0.1-0.5c-0.2,0.1-0.7,0.5-1,0.5c0.2-0.4,0.6-0.5,0.8-0.7c-0.2,0-0.6,0-0.7,0.3c0.1,0,0.2-0.2,0.2-0.1   c-0.2,0.4-0.5,0.6-0.9,0.5c0.1-0.9-1-0.2-1.3-0.9c-0.7,0.3-1.3-0.1-2.1-0.1c0.3,0.7-0.2,0-0.2,0.8c-0.2,0-0.3,0-0.3,0l-0.5-0.4   c-0.1-0.2,0.2-0.2,0.2-0.3c-0.4-0.1-0.2-0.3-0.4-0.5c0.1,0.3-0.1,0.4-0.4,0.3l0.3,0.3c-0.6,0.4-0.5-0.6-1-0.2l0.2-0.2   c-0.3,0.1-1.1,0-1.3,0.6c-0.1-0.1-0.1-0.3,0-0.3c-0.7-0.1-1.5,0.6-2.1,0.3l0.1-0.2c-0.1,0.1-0.2,0.3-0.4,0.2c0-0.1,0.1-0.2,0-0.2   c-0.1,0.1-0.3,0.3-0.5,0.2l0.1-0.2c-0.7-0.2-1,0.5-1.6,0.6c0-0.5-0.5-0.7-0.8-0.8l0-0.1c-0.8-0.1-1.3,0.4-2,0.6   c-0.4-0.6-1.5-0.2-2.2-0.6c0.1,0.1,0,0.4-0.1,0.5c-0.2-0.1-0.5,0.4-0.4-0.1l0.1,0c-0.1-0.5-0.5-0.3-0.7-0.4l0,0.6   c-0.7-0.9-1.9,0.3-2.2-0.5c-0.2,0.2-0.4,0.2-0.6,0.3l0-0.3c-0.5-0.1-0.7-0.1-1.3,0l0.1-0.2c-0.3,0-0.4,1-0.7,1l-0.1-0.5   c-0.6,0-1.2-0.4-1.7,0c0-0.1,0-0.2,0.1-0.2c-0.3,0-1-0.3-1,0.4c0-0.5-0.6,0-0.9,0.2l0-0.3c-0.3,0.4-0.3,0.5-0.6,0.7   c-0.1,0-0.1-0.3,0-0.2c-0.3-0.2-0.2,0.3-0.6,0.1l0.1-0.2c-0.3,0-0.3,0.1-0.4,0.3c-0.2,0.1-0.6-0.1-0.6-0.4c0,0.2-0.2,0.4-0.4,0.3   c0-0.1,0-0.2,0.1-0.2c-0.5-0.2-0.7,0.4-1.1,0.1c0-0.1,0-0.2-0.1-0.2c0.4,0,0.7,0,0.7,0.1c0-0.3-0.3-0.4-0.1-0.8   c-0.3,0.2-0.7,0.7-1,0.6c0,0,0-0.1,0-0.1l0,0c-0.1,0-0.1,0-0.2,0c-0.1-0.1-0.2-0.1-0.3-0.1c0-0.3-0.4-0.1-0.5-0.1   c0,0.3-0.2,0.3,0,0.6c0,0,0,0,0.1-0.1c0,0,0.1,0,0.1,0c0,0,0,0,0,0c0.1,0,0.2,0,0.4,0c-0.1,0.2-0.3,0.3-0.4,0.1   c-0.1,0.2-0.2,0.4-0.2,0.5c-0.2-0.5-0.6-0.7-0.7-1c-0.5,0.2-1.1,0.1-1.5,0.8c-0.1,0.1-0.2-0.2-0.2-0.3c0.1-0.1,0.2-0.1,0.2-0.1   c-0.3,0.2-0.8,0.1-0.9,0.5c-0.3-0.2,0.2-0.4-0.3-0.3l0.1-0.1c-0.9-0.7-1.5,1.1-2.6,0.2c0.1,0.1,0.1,0.1,0.1,0.2   c-1.2-0.4-2.5,0.4-3.6-0.3c-0.3-0.1-0.4,0.2-0.6,0.4L11,48.6L10.7,49c-0.5,0.3-0.9-0.9-1.5-0.3L9.3,49c-0.2,0-0.7,0.1-0.7-0.1   c0,0-0.1,0.3-0.2,0.1l0-0.2l-0.6,0.3C7.5,49,8,48.4,7.3,48.3c-0.2,0.1-0.7,0.6-0.6,0.7C6.9,49,7,49.1,7,49.3l-0.2,0.1   c0,0.6-0.2,1.1,0.3,1.5l0.4-0.3l0.1,0.3l-0.3,0c0.2,0.3,0.3,0,0.4-0.1c0,0.1,0.1,0.2,0.2,0.3l0.4-0.5c0,0.2-0.2,0.4,0.1,0.6   c0.2-0.2-0.2-0.5,0.1-0.7c0.2,0.3,0.1,0.5,0.3,0.2c0,0.1,0,0.2-0.1,0.3c0.2-0.2,0.5-0.1,0.6-0.4c0.2,0.3,0.6-0.1,0.6,0.4   c0.1-0.1,0.3-0.4,0.5-0.4c-0.3,0.6,0.6,0,0.5,0.7c0.2-0.6,0.8-0.3,1.2-0.6c0,0-0.1,0.1-0.1,0.1c0.2,0,0.3,0.2,0.4,0.3   c0-0.5,0.4-0.6,0.6-0.9c0.3,0.5-0.2,0.6-0.1,1c0-0.4,0.5-0.4,0.4-0.7c0.2,0.3,0.2,0.1,0.3,0.5c0-0.6,0.2-0.1,0.4-0.5   c0.3,0.3,0.1,0.5,0.4,0.4C14.5,51.2,14.2,51.4,14.2,51.4z M22.2,50.4C22.2,50.4,22.2,50.4,22.2,50.4c-0.1,0-0.1,0-0.2,0   C22,50.4,22.1,50.4,22.2,50.4z M22.8,50.4c-0.1,0-0.2,0-0.3,0c0-0.1,0-0.2,0.1-0.2C22.6,50.2,22.7,50.3,22.8,50.4z M21.4,48.1   c0.1,0,0.1,0,0.2,0.1c-0.1,0-0.1,0-0.2,0c0,0,0,0,0,0C21.4,48.2,21.4,48.1,21.4,48.1z" data-part-id="logo__item--shape_1__27" stroke="none" stroke-width="1px"></path>
	<path fill="#091117" d="M21.2,48.5C21.2,48.5,21.2,48.5,21.2,48.5c0,0.1,0,0.1,0,0.1C21.3,48.6,21.3,48.5,21.2,48.5   C21.3,48.5,21.2,48.5,21.2,48.5z" data-part-id="logo__item--shape_1__28" stroke="none" stroke-width="1px"></path>
	<path fill="#091117" d="M81.9,49L81.9,49C81.9,49,81.9,49,81.9,49C81.9,49,81.9,49,81.9,49z" data-part-id="logo__item--shape_1__29" stroke="none" stroke-width="1px"></path>
	<polygon fill="#091117" points="32.1,51 32.1,50.9 32,51" data-part-id="logo__item--shape_1__30" stroke="none" stroke-width="1px"></polygon>
	<path fill="#091117" d="M85.6,50.2C85.6,50.2,85.6,50.2,85.6,50.2C85.7,50.2,85.6,50.2,85.6,50.2z" data-part-id="logo__item--shape_1__31" stroke="none" stroke-width="1px"></path>
	<path fill="#091117" d="M87.2,50.2l0.2,0.1C87.3,50.3,87.3,50.2,87.2,50.2z" data-part-id="logo__item--shape_1__32" stroke="none" stroke-width="1px"></path>
	<path fill="#091117" d="M88.4,50.4c0-0.1,0-0.1,0-0.1c0,0,0,0,0,0L88.4,50.4z" data-part-id="logo__item--shape_1__33" stroke="none" stroke-width="1px"></path>
	<path fill="#091117" d="M69,50.8C68.9,50.8,68.9,50.8,69,50.8C68.8,50.9,68.9,50.8,69,50.8z" data-part-id="logo__item--shape_1__34" stroke="none" stroke-width="1px"></path>
	<path fill="#091117" d="M74.8,50c-0.1,0.1-0.1,0.1-0.2,0.2C74.7,50.2,74.8,50.2,74.8,50z" data-part-id="logo__item--shape_1__35" stroke="none" stroke-width="1px"></path>
	<path fill="#091117" d="M62.5,51.2C62.5,51.2,62.5,51.2,62.5,51.2C62.5,51.2,62.5,51.2,62.5,51.2L62.5,51.2z" data-part-id="logo__item--shape_1__36" stroke="none" stroke-width="1px"></path>
	<path fill="#091117" d="M74.3,50.2c0.1,0.1,0.2,0.1,0.3,0C74.5,50.1,74.4,50.1,74.3,50.2z" data-part-id="logo__item--shape_1__37" stroke="none" stroke-width="1px"></path>
	<path fill="#091117" d="M93.8,50.5L93.8,50.5C93.8,50.5,93.8,50.5,93.8,50.5L93.8,50.5z" data-part-id="logo__item--shape_1__38" stroke="none" stroke-width="1px"></path>
	<path fill="#091117" d="M93.8,50.5L93.8,50.5C93.9,50.5,93.8,50.5,93.8,50.5z" data-part-id="logo__item--shape_1__39" stroke="none" stroke-width="1px"></path>
	<path fill="#091117" d="M94,50.4l-0.1,0.1C93.9,50.5,94,50.5,94,50.4z" data-part-id="logo__item--shape_1__40" stroke="none" stroke-width="1px"></path>
	<path fill="#091117" d="M92.1,50.4l0,0.1C92.1,50.5,92.1,50.5,92.1,50.4z" data-part-id="logo__item--shape_1__41" stroke="none" stroke-width="1px"></path>
	<path fill="#091117" d="M91.6,50.4c0.1,0,0.3,0.3,0.5,0.2l0-0.1C92,50.7,91.7,50.2,91.6,50.4z" data-part-id="logo__item--shape_1__42" stroke="none" stroke-width="1px"></path>
	<path fill="#091117" d="M89.6,48.9L90,49c-0.1-0.1-0.2-0.3,0-0.3C89.5,48.3,90.1,49,89.6,48.9z" data-part-id="logo__item--shape_1__43" stroke="none" stroke-width="1px"></path>
	<path fill="#091117" d="M88.3,48.7c0.2-0.1,0-0.2,0-0.3C88.2,48.6,88.1,48.6,88.3,48.7z" data-part-id="logo__item--shape_1__44" stroke="none" stroke-width="1px"></path>
	<path fill="#091117" d="M79,48.7l0-0.3C78.9,48.5,79.1,48.5,79,48.7z" data-part-id="logo__item--shape_1__45" stroke="none" stroke-width="1px"></path>
	<polygon fill="#091117" points="77.3,50.3 77.4,50.5 77.5,50.2" data-part-id="logo__item--shape_1__46" stroke="none" stroke-width="1px"></polygon>
	<polygon fill="#091117" points="76.2,48.1 76.3,48.1 76,48.2" data-part-id="logo__item--shape_1__47" stroke="none" stroke-width="1px"></polygon>
	<path fill="#091117" d="M60.7,48.2l0.1,0.4C60.9,48.6,60.9,48.1,60.7,48.2z" data-part-id="logo__item--shape_1__48" stroke="none" stroke-width="1px"></path>
	<path fill="#091117" d="M54,48.6c-0.1-0.2-0.3-0.3-0.4-0.1C53.8,48.5,53.9,48.7,54,48.6z" data-part-id="logo__item--shape_1__49" stroke="none" stroke-width="1px"></path>
	<polygon fill="#091117" points="33.9,48 34,47.9 33.7,48" data-part-id="logo__item--shape_1__50" stroke="none" stroke-width="1px"></polygon>
</g>

    </g>
</g></svg>